<?xml version="1.0" encoding="us-ascii" standalone="no"?><svg xmlns="http://www.w3.org/2000/svg" xmlns:xlink="http://www.w3.org/1999/xlink" contentStyleType="text/css" height="996px" preserveAspectRatio="none" style="width:687px;height:996px;background:#FFFFFF;" version="1.1" viewBox="0 0 687 996" width="687px" zoomAndPan="magnify"><defs/><g><text fill="#000000" font-family="sans-serif" font-size="14" font-weight="bold" lengthAdjust="spacing" textLength="362" x="164.25" y="27.9951">&#1059;&#1087;&#1088;&#1072;&#1074;&#1083;&#1077;&#1085;&#1080;&#1077; &#1088;&#1072;&#1089;&#1087;&#1088;&#1077;&#1076;&#1077;&#1083;&#1077;&#1085;&#1085;&#1086;&#1081; &#1072;&#1088;&#1093;&#1080;&#1090;&#1077;&#1082;&#1090;&#1091;&#1088;&#1086;&#1081;</text><rect fill="none" height="162.7969" style="stroke:#000000;stroke-width:1.5;" width="671.5" x="10" y="154.1875"/><rect fill="none" height="276.1953" style="stroke:#000000;stroke-width:1.5;" width="671.5" x="10" y="330.9844"/><rect fill="none" height="247.0625" style="stroke:#000000;stroke-width:1.5;" width="427.5" x="134" y="621.1797"/><line style="stroke:#181818;stroke-width:0.5;stroke-dasharray:5.0,5.0;" x1="62" x2="62" y1="137.1875" y2="885.2422"/><line style="stroke:#181818;stroke-width:0.5;stroke-dasharray:5.0,5.0;" x1="186" x2="186" y1="137.1875" y2="885.2422"/><line style="stroke:#181818;stroke-width:0.5;stroke-dasharray:5.0,5.0;" x1="286.5" x2="286.5" y1="137.1875" y2="885.2422"/><line style="stroke:#181818;stroke-width:0.5;stroke-dasharray:5.0,5.0;" x1="383.5" x2="383.5" y1="137.1875" y2="885.2422"/><line style="stroke:#181818;stroke-width:0.5;stroke-dasharray:5.0,5.0;" x1="498.5" x2="498.5" y1="137.1875" y2="885.2422"/><line style="stroke:#181818;stroke-width:0.5;stroke-dasharray:5.0,5.0;" x1="616.5" x2="616.5" y1="137.1875" y2="885.2422"/><text fill="#000000" font-family="sans-serif" font-size="14" lengthAdjust="spacing" textLength="79" x="20" y="133.8857">&#1050;&#1086;&#1084;&#1072;&#1085;&#1076;&#1072; &#1040;</text><ellipse cx="62.5" cy="69.3906" fill="#E2E2F0" rx="8" ry="8" style="stroke:#181818;stroke-width:0.5;"/><path d="M62.5,77.3906 L62.5,104.3906 M49.5,85.3906 L75.5,85.3906 M62.5,104.3906 L49.5,119.3906 M62.5,104.3906 L75.5,119.3906 " fill="none" style="stroke:#181818;stroke-width:0.5;"/><text fill="#000000" font-family="sans-serif" font-size="14" lengthAdjust="spacing" textLength="79" x="20" y="897.2373">&#1050;&#1086;&#1084;&#1072;&#1085;&#1076;&#1072; &#1040;</text><ellipse cx="62.5" cy="909.0391" fill="#E2E2F0" rx="8" ry="8" style="stroke:#181818;stroke-width:0.5;"/><path d="M62.5,917.0391 L62.5,944.0391 M49.5,925.0391 L75.5,925.0391 M62.5,944.0391 L49.5,959.0391 M62.5,944.0391 L75.5,959.0391 " fill="none" style="stroke:#181818;stroke-width:0.5;"/><text fill="#000000" font-family="sans-serif" font-size="14" lengthAdjust="spacing" textLength="79" x="144" y="133.8857">&#1050;&#1086;&#1084;&#1072;&#1085;&#1076;&#1072; B</text><ellipse cx="186.5" cy="69.3906" fill="#E2E2F0" rx="8" ry="8" style="stroke:#181818;stroke-width:0.5;"/><path d="M186.5,77.3906 L186.5,104.3906 M173.5,85.3906 L199.5,85.3906 M186.5,104.3906 L173.5,119.3906 M186.5,104.3906 L199.5,119.3906 " fill="none" style="stroke:#181818;stroke-width:0.5;"/><text fill="#000000" font-family="sans-serif" font-size="14" lengthAdjust="spacing" textLength="79" x="144" y="897.2373">&#1050;&#1086;&#1084;&#1072;&#1085;&#1076;&#1072; B</text><ellipse cx="186.5" cy="909.0391" fill="#E2E2F0" rx="8" ry="8" style="stroke:#181818;stroke-width:0.5;"/><path d="M186.5,917.0391 L186.5,944.0391 M173.5,925.0391 L199.5,925.0391 M186.5,944.0391 L173.5,959.0391 M186.5,944.0391 L199.5,959.0391 " fill="none" style="stroke:#181818;stroke-width:0.5;"/><rect fill="#E2E2F0" height="30.2969" rx="2.5" ry="2.5" style="stroke:#181818;stroke-width:0.5;" width="70" x="251.5" y="105.8906"/><text fill="#000000" font-family="sans-serif" font-size="14" lengthAdjust="spacing" textLength="56" x="258.5" y="125.8857">DocHub</text><rect fill="#E2E2F0" height="30.2969" rx="2.5" ry="2.5" style="stroke:#181818;stroke-width:0.5;" width="70" x="251.5" y="884.2422"/><text fill="#000000" font-family="sans-serif" font-size="14" lengthAdjust="spacing" textLength="56" x="258.5" y="904.2373">DocHub</text><text fill="#000000" font-family="sans-serif" font-size="14" lengthAdjust="spacing" textLength="99" x="331.5" y="101.292">&#1056;&#1077;&#1087;&#1086;&#1079;&#1080;&#1090;&#1086;&#1088;&#1080;&#1081;</text><text fill="#000000" font-family="sans-serif" font-size="14" lengthAdjust="spacing" textLength="36" x="363" y="117.5889">&#1082;&#1086;&#1076;&#1072;</text><text fill="#000000" font-family="sans-serif" font-size="14" lengthAdjust="spacing" textLength="81" x="340.5" y="133.8857">&#1082;&#1086;&#1084;&#1072;&#1085;&#1076;&#1099; A</text><path d="M366,52.2969 C366,42.2969 384,42.2969 384,42.2969 C384,42.2969 402,42.2969 402,52.2969 L402,78.2969 C402,88.2969 384,88.2969 384,88.2969 C384,88.2969 366,88.2969 366,78.2969 L366,52.2969 " fill="#E2E2F0" style="stroke:#181818;stroke-width:1.5;"/><path d="M366,52.2969 C366,62.2969 384,62.2969 384,62.2969 C384,62.2969 402,62.2969 402,52.2969 " fill="none" style="stroke:#181818;stroke-width:1.5;"/><text fill="#000000" font-family="sans-serif" font-size="14" lengthAdjust="spacing" textLength="99" x="331.5" y="897.2373">&#1056;&#1077;&#1087;&#1086;&#1079;&#1080;&#1090;&#1086;&#1088;&#1080;&#1081;</text><text fill="#000000" font-family="sans-serif" font-size="14" lengthAdjust="spacing" textLength="36" x="363" y="913.5342">&#1082;&#1086;&#1076;&#1072;</text><text fill="#000000" font-family="sans-serif" font-size="14" lengthAdjust="spacing" textLength="81" x="340.5" y="929.8311">&#1082;&#1086;&#1084;&#1072;&#1085;&#1076;&#1099; A</text><path d="M366,943.1328 C366,933.1328 384,933.1328 384,933.1328 C384,933.1328 402,933.1328 402,943.1328 L402,969.1328 C402,979.1328 384,979.1328 384,979.1328 C384,979.1328 366,979.1328 366,969.1328 L366,943.1328 " fill="#E2E2F0" style="stroke:#181818;stroke-width:1.5;"/><path d="M366,943.1328 C366,953.1328 384,953.1328 384,953.1328 C384,953.1328 402,953.1328 402,943.1328 " fill="none" style="stroke:#181818;stroke-width:1.5;"/><text fill="#000000" font-family="sans-serif" font-size="14" lengthAdjust="spacing" textLength="99" x="446.5" y="101.292">&#1056;&#1077;&#1087;&#1086;&#1079;&#1080;&#1090;&#1086;&#1088;&#1080;&#1081;</text><text fill="#000000" font-family="sans-serif" font-size="14" lengthAdjust="spacing" textLength="36" x="478" y="117.5889">&#1082;&#1086;&#1076;&#1072;</text><text fill="#000000" font-family="sans-serif" font-size="14" lengthAdjust="spacing" textLength="81" x="455.5" y="133.8857">&#1082;&#1086;&#1084;&#1072;&#1085;&#1076;&#1099; B</text><path d="M481,52.2969 C481,42.2969 499,42.2969 499,42.2969 C499,42.2969 517,42.2969 517,52.2969 L517,78.2969 C517,88.2969 499,88.2969 499,88.2969 C499,88.2969 481,88.2969 481,78.2969 L481,52.2969 " fill="#E2E2F0" style="stroke:#181818;stroke-width:1.5;"/><path d="M481,52.2969 C481,62.2969 499,62.2969 499,62.2969 C499,62.2969 517,62.2969 517,52.2969 " fill="none" style="stroke:#181818;stroke-width:1.5;"/><text fill="#000000" font-family="sans-serif" font-size="14" lengthAdjust="spacing" textLength="99" x="446.5" y="897.2373">&#1056;&#1077;&#1087;&#1086;&#1079;&#1080;&#1090;&#1086;&#1088;&#1080;&#1081;</text><text fill="#000000" font-family="sans-serif" font-size="14" lengthAdjust="spacing" textLength="36" x="478" y="913.5342">&#1082;&#1086;&#1076;&#1072;</text><text fill="#000000" font-family="sans-serif" font-size="14" lengthAdjust="spacing" textLength="81" x="455.5" y="929.8311">&#1082;&#1086;&#1084;&#1072;&#1085;&#1076;&#1099; B</text><path d="M481,943.1328 C481,933.1328 499,933.1328 499,933.1328 C499,933.1328 517,933.1328 517,943.1328 L517,969.1328 C517,979.1328 499,979.1328 499,979.1328 C499,979.1328 481,979.1328 481,969.1328 L481,943.1328 " fill="#E2E2F0" style="stroke:#181818;stroke-width:1.5;"/><path d="M481,943.1328 C481,953.1328 499,953.1328 499,953.1328 C499,953.1328 517,953.1328 517,943.1328 " fill="none" style="stroke:#181818;stroke-width:1.5;"/><text fill="#000000" font-family="sans-serif" font-size="14" lengthAdjust="spacing" textLength="104" x="561.5" y="101.292">&#1062;&#1077;&#1085;&#1090;&#1088;&#1072;&#1083;&#1100;&#1085;&#1099;&#1081;</text><text fill="#000000" font-family="sans-serif" font-size="14" lengthAdjust="spacing" textLength="100" x="563.5" y="117.5889">&#1088;&#1077;&#1087;&#1086;&#1079;&#1080;&#1090;&#1086;&#1088;&#1080;&#1081;</text><text fill="#000000" font-family="sans-serif" font-size="14" lengthAdjust="spacing" textLength="100" x="563.5" y="133.8857">&#1072;&#1088;&#1093;&#1080;&#1090;&#1077;&#1082;&#1090;&#1091;&#1088;&#1099;</text><path d="M598.5,52.2969 C598.5,42.2969 616.5,42.2969 616.5,42.2969 C616.5,42.2969 634.5,42.2969 634.5,52.2969 L634.5,78.2969 C634.5,88.2969 616.5,88.2969 616.5,88.2969 C616.5,88.2969 598.5,88.2969 598.5,78.2969 L598.5,52.2969 " fill="#E2E2F0" style="stroke:#181818;stroke-width:1.5;"/><path d="M598.5,52.2969 C598.5,62.2969 616.5,62.2969 616.5,62.2969 C616.5,62.2969 634.5,62.2969 634.5,52.2969 " fill="none" style="stroke:#181818;stroke-width:1.5;"/><text fill="#000000" font-family="sans-serif" font-size="14" lengthAdjust="spacing" textLength="104" x="561.5" y="897.2373">&#1062;&#1077;&#1085;&#1090;&#1088;&#1072;&#1083;&#1100;&#1085;&#1099;&#1081;</text><text fill="#000000" font-family="sans-serif" font-size="14" lengthAdjust="spacing" textLength="100" x="563.5" y="913.5342">&#1088;&#1077;&#1087;&#1086;&#1079;&#1080;&#1090;&#1086;&#1088;&#1080;&#1081;</text><text fill="#000000" font-family="sans-serif" font-size="14" lengthAdjust="spacing" textLength="100" x="563.5" y="929.8311">&#1072;&#1088;&#1093;&#1080;&#1090;&#1077;&#1082;&#1090;&#1091;&#1088;&#1099;</text><path d="M598.5,943.1328 C598.5,933.1328 616.5,933.1328 616.5,933.1328 C616.5,933.1328 634.5,933.1328 634.5,943.1328 L634.5,969.1328 C634.5,979.1328 616.5,979.1328 616.5,979.1328 C616.5,979.1328 598.5,979.1328 598.5,969.1328 L598.5,943.1328 " fill="#E2E2F0" style="stroke:#181818;stroke-width:1.5;"/><path d="M598.5,943.1328 C598.5,953.1328 616.5,953.1328 616.5,953.1328 C616.5,953.1328 634.5,953.1328 634.5,943.1328 " fill="none" style="stroke:#181818;stroke-width:1.5;"/><path d="M10,154.1875 L207,154.1875 L207,161.3203 L197,171.3203 L10,171.3203 L10,154.1875 " fill="#EEEEEE" style="stroke:#000000;stroke-width:1.5;"/><rect fill="none" height="162.7969" style="stroke:#000000;stroke-width:1.5;" width="671.5" x="10" y="154.1875"/><text fill="#000000" font-family="sans-serif" font-size="13" font-weight="bold" lengthAdjust="spacing" textLength="152" x="25" y="167.2544">&#1054;&#1073;&#1079;&#1086;&#1088; &#1072;&#1088;&#1093;&#1080;&#1090;&#1077;&#1082;&#1090;&#1091;&#1088;&#1099;</text><polygon fill="#181818" points="297.5,188.4531,287.5,192.4531,297.5,196.4531,293.5,192.4531" style="stroke:#181818;stroke-width:1.0;"/><line style="stroke:#181818;stroke-width:1.0;" x1="291.5" x2="615.5" y1="192.4531" y2="192.4531"/><text fill="#000000" font-family="sans-serif" font-size="13" lengthAdjust="spacing" textLength="70" x="303.5" y="187.3872">&#1050;&#1072;&#1082; &#1073;&#1091;&#1076;&#1077;&#1090;</text><polygon fill="#181818" points="297.5,217.5859,287.5,221.5859,297.5,225.5859,293.5,221.5859" style="stroke:#181818;stroke-width:1.0;"/><line style="stroke:#181818;stroke-width:1.0;" x1="291.5" x2="498" y1="221.5859" y2="221.5859"/><text fill="#000000" font-family="sans-serif" font-size="13" lengthAdjust="spacing" textLength="58" x="303.5" y="216.52">&#1050;&#1072;&#1082; &#1077;&#1089;&#1090;&#1100;</text><polygon fill="#181818" points="297.5,246.7188,287.5,250.7188,297.5,254.7188,293.5,250.7188" style="stroke:#181818;stroke-width:1.0;"/><line style="stroke:#181818;stroke-width:1.0;" x1="291.5" x2="383" y1="250.7188" y2="250.7188"/><text fill="#000000" font-family="sans-serif" font-size="13" lengthAdjust="spacing" textLength="58" x="303.5" y="245.6528">&#1050;&#1072;&#1082; &#1077;&#1089;&#1090;&#1100;</text><polygon fill="#181818" points="73.5,275.8516,63.5,279.8516,73.5,283.8516,69.5,279.8516" style="stroke:#181818;stroke-width:1.0;"/><line style="stroke:#181818;stroke-width:1.0;" x1="67.5" x2="285.5" y1="279.8516" y2="279.8516"/><text fill="#000000" font-family="sans-serif" font-size="13" lengthAdjust="spacing" textLength="76" x="79.5" y="274.7856">&#1040;&#1088;&#1090;&#1077;&#1092;&#1072;&#1082;&#1090;&#1099;</text><polygon fill="#181818" points="197.5,304.9844,187.5,308.9844,197.5,312.9844,193.5,308.9844" style="stroke:#181818;stroke-width:1.0;"/><line style="stroke:#181818;stroke-width:1.0;" x1="191.5" x2="285.5" y1="308.9844" y2="308.9844"/><text fill="#000000" font-family="sans-serif" font-size="13" lengthAdjust="spacing" textLength="76" x="203.5" y="303.9185">&#1040;&#1088;&#1090;&#1077;&#1092;&#1072;&#1082;&#1090;&#1099;</text><path d="M10,330.9844 L362,330.9844 L362,338.1172 L352,348.1172 L10,348.1172 L10,330.9844 " fill="#EEEEEE" style="stroke:#000000;stroke-width:1.5;"/><rect fill="none" height="276.1953" style="stroke:#000000;stroke-width:1.5;" width="671.5" x="10" y="330.9844"/><text fill="#000000" font-family="sans-serif" font-size="13" font-weight="bold" lengthAdjust="spacing" textLength="307" x="25" y="344.0513">&#1056;&#1072;&#1079;&#1074;&#1080;&#1090;&#1080;&#1077; &#1082;&#1086;&#1085;&#1094;&#1077;&#1087;&#1090;&#1091;&#1072;&#1083;&#1100;&#1085;&#1086;&#1081; &#1072;&#1088;&#1093;&#1080;&#1090;&#1077;&#1082;&#1090;&#1091;&#1088;&#1099;</text><polygon fill="#181818" points="395,365.25,385,369.25,395,373.25,391,369.25" style="stroke:#181818;stroke-width:1.0;"/><line style="stroke:#181818;stroke-width:1.0;" x1="389" x2="615.5" y1="369.25" y2="369.25"/><text fill="#000000" font-family="sans-serif" font-size="13" lengthAdjust="spacing" textLength="60" x="401" y="364.1841">Checkout</text><polygon fill="#181818" points="73.5,394.3828,63.5,398.3828,73.5,402.3828,69.5,398.3828" style="stroke:#181818;stroke-width:1.0;"/><polygon fill="#181818" points="372,394.3828,382,398.3828,372,402.3828,376,398.3828" style="stroke:#181818;stroke-width:1.0;"/><line style="stroke:#181818;stroke-width:1.0;" x1="67.5" x2="378" y1="398.3828" y2="398.3828"/><text fill="#000000" font-family="sans-serif" font-size="13" lengthAdjust="spacing" textLength="61" x="79.5" y="393.3169">&#1056;&#1072;&#1079;&#1074;&#1080;&#1090;&#1080;&#1077;</text><polygon fill="#181818" points="604.5,423.5156,614.5,427.5156,604.5,431.5156,608.5,427.5156" style="stroke:#181818;stroke-width:1.0;"/><line style="stroke:#181818;stroke-width:1.0;" x1="384" x2="610.5" y1="427.5156" y2="427.5156"/><text fill="#000000" font-family="sans-serif" font-size="13" lengthAdjust="spacing" textLength="75" x="391" y="422.4497">Pull request</text><polygon fill="#181818" points="197.5,452.6484,187.5,456.6484,197.5,460.6484,193.5,456.6484" style="stroke:#181818;stroke-width:1.0;"/><line style="stroke:#181818;stroke-width:1.0;" x1="191.5" x2="615.5" y1="456.6484" y2="456.6484"/><text fill="#000000" font-family="sans-serif" font-size="13" lengthAdjust="spacing" textLength="75" x="203.5" y="451.5825">Pull request</text><line style="stroke:#181818;stroke-width:1.0;" x1="144.5" x2="186.5" y1="485.7813" y2="485.7813"/><line style="stroke:#181818;stroke-width:1.0;" x1="144.5" x2="144.5" y1="485.7813" y2="498.7813"/><line style="stroke:#181818;stroke-width:1.0;" x1="144.5" x2="185.5" y1="498.7813" y2="498.7813"/><polygon fill="#181818" points="177.5,494.7813,187.5,498.7813,177.5,502.7813,181.5,498.7813" style="stroke:#181818;stroke-width:1.0;"/><text fill="#000000" font-family="sans-serif" font-size="13" lengthAdjust="spacing" textLength="47" x="139.5" y="480.7153">Review</text><polygon fill="#181818" points="73.5,523.9141,63.5,527.9141,73.5,531.9141,69.5,527.9141" style="stroke:#181818;stroke-width:1.0;"/><polygon fill="#181818" points="174.5,523.9141,184.5,527.9141,174.5,531.9141,178.5,527.9141" style="stroke:#181818;stroke-width:1.0;"/><line style="stroke:#181818;stroke-width:1.0;" x1="67.5" x2="180.5" y1="527.9141" y2="527.9141"/><text fill="#000000" font-family="sans-serif" font-size="13" lengthAdjust="spacing" textLength="100" x="79.5" y="522.8481">&#1050;&#1086;&#1084;&#1084;&#1091;&#1085;&#1080;&#1082;&#1072;&#1094;&#1080;&#1080;</text><polygon fill="#181818" points="604.5,553.0469,614.5,557.0469,604.5,561.0469,608.5,557.0469" style="stroke:#181818;stroke-width:1.0;"/><line style="stroke:#181818;stroke-width:1.0;" x1="186.5" x2="610.5" y1="557.0469" y2="557.0469"/><text fill="#000000" font-family="sans-serif" font-size="13" lengthAdjust="spacing" textLength="54" x="193.5" y="551.981">Approve</text><line style="stroke:#181818;stroke-width:1.0;" x1="616.5" x2="658.5" y1="586.1797" y2="586.1797"/><line style="stroke:#181818;stroke-width:1.0;" x1="658.5" x2="658.5" y1="586.1797" y2="599.1797"/><line style="stroke:#181818;stroke-width:1.0;" x1="617.5" x2="658.5" y1="599.1797" y2="599.1797"/><polygon fill="#181818" points="627.5,595.1797,617.5,599.1797,627.5,603.1797,623.5,599.1797" style="stroke:#181818;stroke-width:1.0;"/><text fill="#000000" font-family="sans-serif" font-size="13" lengthAdjust="spacing" textLength="39" x="623.5" y="581.1138">Merge</text><path d="M134,621.1797 L439,621.1797 L439,628.3125 L429,638.3125 L134,638.3125 L134,621.1797 " fill="#EEEEEE" style="stroke:#000000;stroke-width:1.5;"/><rect fill="none" height="247.0625" style="stroke:#000000;stroke-width:1.5;" width="427.5" x="134" y="621.1797"/><text fill="#000000" font-family="sans-serif" font-size="13" font-weight="bold" lengthAdjust="spacing" textLength="260" x="149" y="634.2466">&#1056;&#1072;&#1079;&#1074;&#1080;&#1090;&#1080;&#1077; &#1072;&#1088;&#1093;&#1080;&#1090;&#1077;&#1082;&#1090;&#1091;&#1088;&#1099; "&#1082;&#1072;&#1082; &#1077;&#1089;&#1090;&#1100;"</text><polygon fill="#181818" points="487,655.4453,497,659.4453,487,663.4453,491,659.4453" style="stroke:#181818;stroke-width:1.0;"/><line style="stroke:#181818;stroke-width:1.0;" x1="186.5" x2="493" y1="659.4453" y2="659.4453"/><text fill="#000000" font-family="sans-serif" font-size="13" lengthAdjust="spacing" textLength="60" x="193.5" y="654.3794">Checkout</text><polygon fill="#181818" points="197.5,684.5781,187.5,688.5781,197.5,692.5781,193.5,688.5781" style="stroke:#181818;stroke-width:1.0;"/><polygon fill="#181818" points="487,684.5781,497,688.5781,487,692.5781,491,688.5781" style="stroke:#181818;stroke-width:1.0;"/><line style="stroke:#181818;stroke-width:1.0;" x1="191.5" x2="493" y1="688.5781" y2="688.5781"/><text fill="#000000" font-family="sans-serif" font-size="13" lengthAdjust="spacing" textLength="61" x="203.5" y="683.5122">&#1056;&#1072;&#1079;&#1074;&#1080;&#1090;&#1080;&#1077;</text><polygon fill="#181818" points="487,713.7109,497,717.7109,487,721.7109,491,717.7109" style="stroke:#181818;stroke-width:1.0;"/><line style="stroke:#181818;stroke-width:1.0;" x1="186.5" x2="493" y1="717.7109" y2="717.7109"/><text fill="#000000" font-family="sans-serif" font-size="13" lengthAdjust="spacing" textLength="75" x="193.5" y="712.645">Pull request</text><polygon fill="#181818" points="197.5,742.8438,187.5,746.8438,197.5,750.8438,193.5,746.8438" style="stroke:#181818;stroke-width:1.0;"/><line style="stroke:#181818;stroke-width:1.0;" x1="191.5" x2="498" y1="746.8438" y2="746.8438"/><text fill="#000000" font-family="sans-serif" font-size="13" lengthAdjust="spacing" textLength="75" x="203.5" y="741.7778">Pull request</text><line style="stroke:#181818;stroke-width:1.0;" x1="144.5" x2="186.5" y1="775.9766" y2="775.9766"/><line style="stroke:#181818;stroke-width:1.0;" x1="144.5" x2="144.5" y1="775.9766" y2="788.9766"/><line style="stroke:#181818;stroke-width:1.0;" x1="144.5" x2="185.5" y1="788.9766" y2="788.9766"/><polygon fill="#181818" points="177.5,784.9766,187.5,788.9766,177.5,792.9766,181.5,788.9766" style="stroke:#181818;stroke-width:1.0;"/><text fill="#000000" font-family="sans-serif" font-size="13" lengthAdjust="spacing" textLength="47" x="139.5" y="770.9106">Review</text><polygon fill="#181818" points="487,814.1094,497,818.1094,487,822.1094,491,818.1094" style="stroke:#181818;stroke-width:1.0;"/><line style="stroke:#181818;stroke-width:1.0;" x1="186.5" x2="493" y1="818.1094" y2="818.1094"/><text fill="#000000" font-family="sans-serif" font-size="13" lengthAdjust="spacing" textLength="54" x="193.5" y="813.0435">Approve</text><line style="stroke:#181818;stroke-width:1.0;" x1="499" x2="541" y1="847.2422" y2="847.2422"/><line style="stroke:#181818;stroke-width:1.0;" x1="541" x2="541" y1="847.2422" y2="860.2422"/><line style="stroke:#181818;stroke-width:1.0;" x1="500" x2="541" y1="860.2422" y2="860.2422"/><polygon fill="#181818" points="510,856.2422,500,860.2422,510,864.2422,506,860.2422" style="stroke:#181818;stroke-width:1.0;"/><text fill="#000000" font-family="sans-serif" font-size="13" lengthAdjust="spacing" textLength="39" x="506" y="842.1763">Merge</text><!--SRC=[fLCzJyCm4DtpAwpk_064a2WCB4Y86GdPgGKHRHDIfwobV2nbO6P0I4ZCBQ9g2HJ-mlaVyPoqk0akHH0fYdFtxldTyra5gYuPFT27xb2VdkYLXZIXCGsP2UYpB36aPxnvQaBlzCAGwkXB6kikWgdkwdF0aF2uhyAOLUWMVszWdA2qp-YcmdYBASaR1tm1fceXmejuh08_Y7XJiSfMw6yd8alNGlye4LwDAovuIuBa7W8-G3JAnBn3nfXUzfkK8WRQwMgwZUwnZOmdbb489V_WgLgUWfv7un8CCNQ-wckiUuOdSz75xp1IzontWmTDxp0EauZH7GrGZbBchl8OdjmXjhPYwrSPhEvJocYWpyrHwguBAYnkgCz0Ukr2SJSgFrg3ol50tK0JzEaBWmQmPu5Y2L0sQzwiwtj4HvXCqwoPo-mS9lhA-6awd_cyS2wd6-VgIyPi7ad_E4nKiOTrssffztcc6IndsatgTVoV9BAbIet-3fMlLjcUR0Voj2nebfrUcZVqRQvfYeQly1tFanM5RKHH7BQbLMx29SoEZ0_bpwuxZSMyfuLPgBXq29VFmlei5lZydMQPoU9F3XUs-6PN8Vjbr2S0]--></g></svg>